<?xml version="1.0" encoding="UTF-8"?>
<svg xmlns="http://www.w3.org/2000/svg" xmlns:xlink="http://www.w3.org/1999/xlink" width="150pt" height="78pt" viewBox="0 0 150 78" version="1.1">
<g id="surface1">
<rect x="0" y="0" width="150" height="78" style="fill:rgb(69.803922%,13.333333%,20.392157%);fill-opacity:1;stroke:none;"/>
<path style="fill-rule:nonzero;fill:rgb(0%,0%,0%);fill-opacity:1;stroke-width:300;stroke-linecap:butt;stroke-linejoin:miter;stroke:rgb(100%,100%,100%);stroke-opacity:1;stroke-miterlimit:4;" d="M 0 450 L 7410 450 M 7410 1050 L 0 1050 M 0 1650 L 7410 1650 M 7410 2250 L 0 2250 M 0 2850 L 7410 2850 M 7410 3450 L 0 3450 " transform="matrix(0.0202429,0,0,0.02,0,0)"/>
<path style=" stroke:none;fill-rule:nonzero;fill:rgb(23.529412%,23.137255%,43.137255%);fill-opacity:1;" d="M 0 0 L 60 0 L 60 42 L 0 42 Z M 0 0 "/>
<path style=" stroke:none;fill-rule:nonzero;fill:rgb(100%,100%,100%);fill-opacity:1;" d="M 5 1.800781 L 6.429688 6.140625 L 2.691406 3.457031 L 7.308594 3.457031 L 3.570312 6.140625 Z M 5 1.800781 "/>
<path style=" stroke:none;fill-rule:nonzero;fill:rgb(100%,100%,100%);fill-opacity:1;" d="M 5 10.199219 L 6.429688 14.542969 L 2.691406 11.859375 L 7.308594 11.859375 L 3.570312 14.542969 Z M 5 10.199219 "/>
<path style=" stroke:none;fill-rule:nonzero;fill:rgb(100%,100%,100%);fill-opacity:1;" d="M 5 18.601562 L 6.429688 22.941406 L 2.691406 20.257812 L 7.308594 20.257812 L 3.570312 22.941406 Z M 5 18.601562 "/>
<path style=" stroke:none;fill-rule:nonzero;fill:rgb(100%,100%,100%);fill-opacity:1;" d="M 5 27 L 6.429688 31.339844 L 2.691406 28.660156 L 7.308594 28.660156 L 3.570312 31.339844 Z M 5 27 "/>
<path style=" stroke:none;fill-rule:nonzero;fill:rgb(100%,100%,100%);fill-opacity:1;" d="M 5 35.398438 L 6.429688 39.742188 L 2.691406 37.058594 L 7.308594 37.058594 L 3.570312 39.742188 Z M 5 35.398438 "/>
<path style=" stroke:none;fill-rule:nonzero;fill:rgb(100%,100%,100%);fill-opacity:1;" d="M 10 6 L 11.429688 10.339844 L 7.691406 7.660156 L 12.308594 7.660156 L 8.570312 10.339844 Z M 10 6 "/>
<path style=" stroke:none;fill-rule:nonzero;fill:rgb(100%,100%,100%);fill-opacity:1;" d="M 10 14.398438 L 11.429688 18.742188 L 7.691406 16.058594 L 12.308594 16.058594 L 8.570312 18.742188 Z M 10 14.398438 "/>
<path style=" stroke:none;fill-rule:nonzero;fill:rgb(100%,100%,100%);fill-opacity:1;" d="M 10 22.800781 L 11.429688 27.140625 L 7.691406 24.457031 L 12.308594 24.457031 L 8.570312 27.140625 Z M 10 22.800781 "/>
<path style=" stroke:none;fill-rule:nonzero;fill:rgb(100%,100%,100%);fill-opacity:1;" d="M 10 31.199219 L 11.429688 35.542969 L 7.691406 32.859375 L 12.308594 32.859375 L 8.570312 35.542969 Z M 10 31.199219 "/>
<path style=" stroke:none;fill-rule:nonzero;fill:rgb(100%,100%,100%);fill-opacity:1;" d="M 15 1.800781 L 16.429688 6.140625 L 12.691406 3.457031 L 17.308594 3.457031 L 13.570312 6.140625 Z M 15 1.800781 "/>
<path style=" stroke:none;fill-rule:nonzero;fill:rgb(100%,100%,100%);fill-opacity:1;" d="M 15 10.199219 L 16.429688 14.542969 L 12.691406 11.859375 L 17.308594 11.859375 L 13.570312 14.542969 Z M 15 10.199219 "/>
<path style=" stroke:none;fill-rule:nonzero;fill:rgb(100%,100%,100%);fill-opacity:1;" d="M 15 18.601562 L 16.429688 22.941406 L 12.691406 20.257812 L 17.308594 20.257812 L 13.570312 22.941406 Z M 15 18.601562 "/>
<path style=" stroke:none;fill-rule:nonzero;fill:rgb(100%,100%,100%);fill-opacity:1;" d="M 15 27 L 16.429688 31.339844 L 12.691406 28.660156 L 17.308594 28.660156 L 13.570312 31.339844 Z M 15 27 "/>
<path style=" stroke:none;fill-rule:nonzero;fill:rgb(100%,100%,100%);fill-opacity:1;" d="M 15 35.398438 L 16.429688 39.742188 L 12.691406 37.058594 L 17.308594 37.058594 L 13.570312 39.742188 Z M 15 35.398438 "/>
<path style=" stroke:none;fill-rule:nonzero;fill:rgb(100%,100%,100%);fill-opacity:1;" d="M 20 6 L 21.429688 10.339844 L 17.691406 7.660156 L 22.308594 7.660156 L 18.570312 10.339844 Z M 20 6 "/>
<path style=" stroke:none;fill-rule:nonzero;fill:rgb(100%,100%,100%);fill-opacity:1;" d="M 20 14.398438 L 21.429688 18.742188 L 17.691406 16.058594 L 22.308594 16.058594 L 18.570312 18.742188 Z M 20 14.398438 "/>
<path style=" stroke:none;fill-rule:nonzero;fill:rgb(100%,100%,100%);fill-opacity:1;" d="M 20 22.800781 L 21.429688 27.140625 L 17.691406 24.457031 L 22.308594 24.457031 L 18.570312 27.140625 Z M 20 22.800781 "/>
<path style=" stroke:none;fill-rule:nonzero;fill:rgb(100%,100%,100%);fill-opacity:1;" d="M 20 31.199219 L 21.429688 35.542969 L 17.691406 32.859375 L 22.308594 32.859375 L 18.570312 35.542969 Z M 20 31.199219 "/>
<path style=" stroke:none;fill-rule:nonzero;fill:rgb(100%,100%,100%);fill-opacity:1;" d="M 25 1.800781 L 26.429688 6.140625 L 22.691406 3.457031 L 27.308594 3.457031 L 23.570312 6.140625 Z M 25 1.800781 "/>
<path style=" stroke:none;fill-rule:nonzero;fill:rgb(100%,100%,100%);fill-opacity:1;" d="M 25 10.199219 L 26.429688 14.542969 L 22.691406 11.859375 L 27.308594 11.859375 L 23.570312 14.542969 Z M 25 10.199219 "/>
<path style=" stroke:none;fill-rule:nonzero;fill:rgb(100%,100%,100%);fill-opacity:1;" d="M 25 18.601562 L 26.429688 22.941406 L 22.691406 20.257812 L 27.308594 20.257812 L 23.570312 22.941406 Z M 25 18.601562 "/>
<path style=" stroke:none;fill-rule:nonzero;fill:rgb(100%,100%,100%);fill-opacity:1;" d="M 25 27 L 26.429688 31.339844 L 22.691406 28.660156 L 27.308594 28.660156 L 23.570312 31.339844 Z M 25 27 "/>
<path style=" stroke:none;fill-rule:nonzero;fill:rgb(100%,100%,100%);fill-opacity:1;" d="M 25 35.398438 L 26.429688 39.742188 L 22.691406 37.058594 L 27.308594 37.058594 L 23.570312 39.742188 Z M 25 35.398438 "/>
<path style=" stroke:none;fill-rule:nonzero;fill:rgb(100%,100%,100%);fill-opacity:1;" d="M 30 6 L 31.429688 10.339844 L 27.691406 7.660156 L 32.308594 7.660156 L 28.570312 10.339844 Z M 30 6 "/>
<path style=" stroke:none;fill-rule:nonzero;fill:rgb(100%,100%,100%);fill-opacity:1;" d="M 30 14.398438 L 31.429688 18.742188 L 27.691406 16.058594 L 32.308594 16.058594 L 28.570312 18.742188 Z M 30 14.398438 "/>
<path style=" stroke:none;fill-rule:nonzero;fill:rgb(100%,100%,100%);fill-opacity:1;" d="M 30 22.800781 L 31.429688 27.140625 L 27.691406 24.457031 L 32.308594 24.457031 L 28.570312 27.140625 Z M 30 22.800781 "/>
<path style=" stroke:none;fill-rule:nonzero;fill:rgb(100%,100%,100%);fill-opacity:1;" d="M 30 31.199219 L 31.429688 35.542969 L 27.691406 32.859375 L 32.308594 32.859375 L 28.570312 35.542969 Z M 30 31.199219 "/>
<path style=" stroke:none;fill-rule:nonzero;fill:rgb(100%,100%,100%);fill-opacity:1;" d="M 35 1.800781 L 36.429688 6.140625 L 32.691406 3.457031 L 37.308594 3.457031 L 33.570312 6.140625 Z M 35 1.800781 "/>
<path style=" stroke:none;fill-rule:nonzero;fill:rgb(100%,100%,100%);fill-opacity:1;" d="M 35 10.199219 L 36.429688 14.542969 L 32.691406 11.859375 L 37.308594 11.859375 L 33.570312 14.542969 Z M 35 10.199219 "/>
<path style=" stroke:none;fill-rule:nonzero;fill:rgb(100%,100%,100%);fill-opacity:1;" d="M 35 18.601562 L 36.429688 22.941406 L 32.691406 20.257812 L 37.308594 20.257812 L 33.570312 22.941406 Z M 35 18.601562 "/>
<path style=" stroke:none;fill-rule:nonzero;fill:rgb(100%,100%,100%);fill-opacity:1;" d="M 35 27 L 36.429688 31.339844 L 32.691406 28.660156 L 37.308594 28.660156 L 33.570312 31.339844 Z M 35 27 "/>
<path style=" stroke:none;fill-rule:nonzero;fill:rgb(100%,100%,100%);fill-opacity:1;" d="M 35 35.398438 L 36.429688 39.742188 L 32.691406 37.058594 L 37.308594 37.058594 L 33.570312 39.742188 Z M 35 35.398438 "/>
<path style=" stroke:none;fill-rule:nonzero;fill:rgb(100%,100%,100%);fill-opacity:1;" d="M 40 6 L 41.429688 10.339844 L 37.691406 7.660156 L 42.308594 7.660156 L 38.570312 10.339844 Z M 40 6 "/>
<path style=" stroke:none;fill-rule:nonzero;fill:rgb(100%,100%,100%);fill-opacity:1;" d="M 40 14.398438 L 41.429688 18.742188 L 37.691406 16.058594 L 42.308594 16.058594 L 38.570312 18.742188 Z M 40 14.398438 "/>
<path style=" stroke:none;fill-rule:nonzero;fill:rgb(100%,100%,100%);fill-opacity:1;" d="M 40 22.800781 L 41.429688 27.140625 L 37.691406 24.457031 L 42.308594 24.457031 L 38.570312 27.140625 Z M 40 22.800781 "/>
<path style=" stroke:none;fill-rule:nonzero;fill:rgb(100%,100%,100%);fill-opacity:1;" d="M 40 31.199219 L 41.429688 35.542969 L 37.691406 32.859375 L 42.308594 32.859375 L 38.570312 35.542969 Z M 40 31.199219 "/>
<path style=" stroke:none;fill-rule:nonzero;fill:rgb(100%,100%,100%);fill-opacity:1;" d="M 45 1.800781 L 46.429688 6.140625 L 42.691406 3.457031 L 47.308594 3.457031 L 43.570312 6.140625 Z M 45 1.800781 "/>
<path style=" stroke:none;fill-rule:nonzero;fill:rgb(100%,100%,100%);fill-opacity:1;" d="M 45 10.199219 L 46.429688 14.542969 L 42.691406 11.859375 L 47.308594 11.859375 L 43.570312 14.542969 Z M 45 10.199219 "/>
<path style=" stroke:none;fill-rule:nonzero;fill:rgb(100%,100%,100%);fill-opacity:1;" d="M 45 18.601562 L 46.429688 22.941406 L 42.691406 20.257812 L 47.308594 20.257812 L 43.570312 22.941406 Z M 45 18.601562 "/>
<path style=" stroke:none;fill-rule:nonzero;fill:rgb(100%,100%,100%);fill-opacity:1;" d="M 45 27 L 46.429688 31.339844 L 42.691406 28.660156 L 47.308594 28.660156 L 43.570312 31.339844 Z M 45 27 "/>
<path style=" stroke:none;fill-rule:nonzero;fill:rgb(100%,100%,100%);fill-opacity:1;" d="M 45 35.398438 L 46.429688 39.742188 L 42.691406 37.058594 L 47.308594 37.058594 L 43.570312 39.742188 Z M 45 35.398438 "/>
<path style=" stroke:none;fill-rule:nonzero;fill:rgb(100%,100%,100%);fill-opacity:1;" d="M 50 6 L 51.429688 10.339844 L 47.691406 7.660156 L 52.308594 7.660156 L 48.570312 10.339844 Z M 50 6 "/>
<path style=" stroke:none;fill-rule:nonzero;fill:rgb(100%,100%,100%);fill-opacity:1;" d="M 50 14.398438 L 51.429688 18.742188 L 47.691406 16.058594 L 52.308594 16.058594 L 48.570312 18.742188 Z M 50 14.398438 "/>
<path style=" stroke:none;fill-rule:nonzero;fill:rgb(100%,100%,100%);fill-opacity:1;" d="M 50 22.800781 L 51.429688 27.140625 L 47.691406 24.457031 L 52.308594 24.457031 L 48.570312 27.140625 Z M 50 22.800781 "/>
<path style=" stroke:none;fill-rule:nonzero;fill:rgb(100%,100%,100%);fill-opacity:1;" d="M 50 31.199219 L 51.429688 35.542969 L 47.691406 32.859375 L 52.308594 32.859375 L 48.570312 35.542969 Z M 50 31.199219 "/>
<path style=" stroke:none;fill-rule:nonzero;fill:rgb(100%,100%,100%);fill-opacity:1;" d="M 55 1.800781 L 56.429688 6.140625 L 52.691406 3.457031 L 57.308594 3.457031 L 53.570312 6.140625 Z M 55 1.800781 "/>
<path style=" stroke:none;fill-rule:nonzero;fill:rgb(100%,100%,100%);fill-opacity:1;" d="M 55 10.199219 L 56.429688 14.542969 L 52.691406 11.859375 L 57.308594 11.859375 L 53.570312 14.542969 Z M 55 10.199219 "/>
<path style=" stroke:none;fill-rule:nonzero;fill:rgb(100%,100%,100%);fill-opacity:1;" d="M 55 18.601562 L 56.429688 22.941406 L 52.691406 20.257812 L 57.308594 20.257812 L 53.570312 22.941406 Z M 55 18.601562 "/>
<path style=" stroke:none;fill-rule:nonzero;fill:rgb(100%,100%,100%);fill-opacity:1;" d="M 55 27 L 56.429688 31.339844 L 52.691406 28.660156 L 57.308594 28.660156 L 53.570312 31.339844 Z M 55 27 "/>
<path style=" stroke:none;fill-rule:nonzero;fill:rgb(100%,100%,100%);fill-opacity:1;" d="M 55 35.398438 L 56.429688 39.742188 L 52.691406 37.058594 L 57.308594 37.058594 L 53.570312 39.742188 Z M 55 35.398438 "/>
</g>
</svg>
